<svg xmlns="http://www.w3.org/2000/svg" viewBox="0 0 2179.9 764.6"><defs><style>.a,.b,.c{fill:none;stroke:#ff0;opacity:0.25;isolation:isolate;}.a,.d{stroke-linecap:round;stroke-linejoin:round;}.a{stroke-width:6px;}.b,.c{stroke-miterlimit:10;}.b{stroke-width:7px;}.c{stroke-width:7.5px;}.d,.e{fill:#fcee21;}.d{stroke:#fcee21;stroke-width:10px;}.f{fill:#ff0;}</style></defs><title>PJ1_logo</title><rect x="-29.9" y="-187.1" width="2239.7" height="1134.97"/><path class="a" d="M1233.9,952.9l.9-579L1543,65.7l253.1,218.2-1-468L2214.6,12.3"/><path class="a" d="M18.5,952.9l587.6-582L1185.2,950"/><path class="a" d="M557.9,947.1-27.6,376.6l312-314L609.1,373.9l306-306,628-2,251.9-250H1107.1l-299,307h-457l372-307H99.1v258L-26.5-48.7-26.9,950"/><path class="a" d="M2214.6,205.3,1467.1,952.9"/><circle class="b" cx="657.1" cy="727.9" r="174"/><circle class="b" cx="1533.1" cy="501.9" r="115"/><path class="b" d="M2212.2,832.7a153,153,0,1,1,0-143.7"/><circle class="c" cx="1081.4" cy="259.1" r="110"/><path class="d" d="M678.2,687.7V125.2l-225,225V687.7Z"/><rect class="d" x="78.2" y="369" width="318.7" height="318.75"/><path class="d" d="M78.2,87.7H640.7l-225,225H78.2Z"/><path class="e" d="M957.8,435.1V671.2H883V82.6h190.8a254.6,254.6,0,0,1,75,12.5,188.8,188.8,0,0,1,62.1,34,160.2,160.2,0,0,1,42.2,55q15.6,32.7,15.6,75.2t-15.6,75a160.4,160.4,0,0,1-42.2,54.8q-26.7,22.2-62.1,34a244.8,244.8,0,0,1-75,12.1Zm0-61.4h116a146.4,146.4,0,0,0,47.7-8.3,115.2,115.2,0,0,0,38-22.5,101.9,101.9,0,0,0,25.3-35.3c6-13.9,9-29.8,9-47.5s-3-33.9-9-48.2a106.1,106.1,0,0,0-25.1-36.3,109.8,109.8,0,0,0-38-23,142.6,142.6,0,0,0-47.9-8.5h-116Z"/><path class="f" d="M1649.1,82.6h76.4V492.1c-.5,27.3-5.7,52.3-15.6,75.2a179.2,179.2,0,0,1-100.2,98q-34.7,14-75.4,14t-75-12.5a172.4,172.4,0,0,1-58.6-35.8,175.7,175.7,0,0,1-39.9-56.2q-15-33-18.6-73.8h76a137.6,137.6,0,0,0,9.9,45.7,118.2,118.2,0,0,0,23.7,36.6,102.4,102.4,0,0,0,35.8,24.1c13.9,5.6,29.4,8.4,46.7,8.4s33.7-3.3,47.7-9.9a108.3,108.3,0,0,0,35.8-26.8,122.3,122.3,0,0,0,22.6-39.5,160.1,160.1,0,0,0,8.7-47.5Zm463.4,588.6h-74.8V178l-154,58.6V168.3l222.7-85.7h6.1Z"/></svg>