<svg xmlns="http://www.w3.org/2000/svg" viewBox="0 0 2250.49 1143.02"><defs><style>.cls-1,.cls-2{fill:none;stroke:#ff0;opacity:0.25;isolation:isolate;}.cls-1,.cls-3{stroke-linecap:round;stroke-linejoin:round;}.cls-1{stroke-width:6px;}.cls-2{stroke-miterlimit:10;stroke-width:7px;}.cls-3,.cls-4{fill:#fcee21;}.cls-3{stroke:#fcee21;stroke-width:10px;}.cls-5{fill:#ff0;}</style></defs><title>PJ1_logo</title><g id="Background"><rect id="Background-2" data-name="Background" x="0.69" width="2239.71" height="1134.97"/><g id="BackgroundPattern"><path id="path11" class="cls-1" d="M1263.82,1140l.93-579,308.12-308.12L1826,471,1825,3l419.54,196.44" transform="translate(0.69)"/><path id="path11-2" data-name="path11" class="cls-1" d="M1263.82,1140" transform="translate(0.69)"/><path id="path11-3" data-name="path11" class="cls-1" d="M1215.15,1137.15" transform="translate(0.69)"/><path id="path11-4" data-name="path11" class="cls-1" d="M48.41,1140,636,558l579.15,579.15" transform="translate(0.69)"/><path id="path11-5" data-name="path11" class="cls-1" d="M3,1137.15" transform="translate(0.69)"/><path id="path11-6" data-name="path11" class="cls-1" d="M587.83,1134.28,2.31,563.69l312-314L639,561,945,255l628-2L1824.92,3.08H1137L838,310H381L753,3H129V261L3.39,138.39,3,1137.15" transform="translate(0.69)"/><path id="path11-7" data-name="path11" class="cls-1" d="M587.83,1134.28" transform="translate(0.69)"/><path id="path11-8" data-name="path11" class="cls-1" d="M1497,1140" transform="translate(0.69)"/><path id="path11-9" data-name="path11" class="cls-1" d="M2244.54,392.46,1497,1140" transform="translate(0.69)"/><path id="path11-10" data-name="path11" class="cls-1" d="M2244.54,392.46" transform="translate(0.69)"/><path id="path11-11" data-name="path11" class="cls-1" d="M2244.54,199.44" transform="translate(0.69)"/><circle id="circle13" class="cls-2" cx="687.69" cy="915" r="174"/><circle id="circle15" class="cls-2" cx="1563.69" cy="689" r="115"/><path id="circle17" class="cls-2" d="M2242.13,876.17q2.38,4.49,4.47,9.13" transform="translate(0.69)"/><path id="circle17-2" data-name="circle17" class="cls-2" d="M2242.13,1019.83a153,153,0,1,1,0-143.66" transform="translate(0.69)"/><path id="circle17-3" data-name="circle17" class="cls-2" d="M2242.13,1019.83" transform="translate(0.69)"/><circle id="circle19" class="cls-2" cx="1112.69" cy="446.12" r="110"/></g></g><g id="Foreground"><g id="Layer_3" data-name="Layer 3"><path id="path1375" class="cls-3" d="M708.13,874.84V312.34l-225,225v337.5Z" transform="translate(0.69)"/><rect id="rect1407" class="cls-3" x="108.82" y="556.09" width="318.75" height="318.75"/><path id="path1375-8" class="cls-3" d="M108.13,274.84h562.5l-225,225H108.13Z" transform="translate(0.69)"/></g><g id="Text"><path id="path22" class="cls-4" d="M987.69,622.25V858.36H912.9V269.71h190.83a253.23,253.23,0,0,1,75,12.53q35.38,11.73,62.06,34a159.89,159.89,0,0,1,42.25,55q15.57,32.76,15.57,75.2t-15.57,75a160.36,160.36,0,0,1-42.25,54.78q-26.67,22.24-62.06,34a244.39,244.39,0,0,1-75,12.13Zm0-61.45h116a146.26,146.26,0,0,0,47.7-8.29,113.77,113.77,0,0,0,38-22.44,101.83,101.83,0,0,0,25.27-35.37q9.09-20.82,9.09-47.51t-9.09-48.11a106,106,0,0,0-25.07-36.39,110.85,110.85,0,0,0-38-23,145,145,0,0,0-47.91-8.49h-116Z" transform="translate(0.69)"/><path id="path24" class="cls-5" d="M1679,269.71h76.41V679.26q-.81,40.85-15.56,75.2a179.92,179.92,0,0,1-100.27,98q-34.56,13.95-75.4,14-41.23,0-75-12.54a172.69,172.69,0,0,1-58.62-35.78A174.74,174.74,0,0,1,1390.74,762q-15-33-18.6-73.79h76a136.07,136.07,0,0,0,9.9,45.69,116.32,116.32,0,0,0,23.66,36.59,102.54,102.54,0,0,0,35.78,24q20.8,8.49,46.69,8.49,26.68,0,47.71-9.9a107.54,107.54,0,0,0,35.78-26.89,120.28,120.28,0,0,0,22.64-39.42,157.56,157.56,0,0,0,8.69-47.5Zm463.37,588.65h-74.8V365.12l-154,58.62V355.42l222.77-85.71h6.07Z" transform="translate(0.69)"/></g></g></svg>