<svg xmlns="http://www.w3.org/2000/svg" viewBox="0 0 2376 1188"><defs><style>.a,.b{fill:none;stroke:#ff0;opacity:0.25;isolation:isolate;}.a,.c{stroke-linecap:round;stroke-linejoin:round;}.a{stroke-width:6px;}.b{stroke-miterlimit:10;stroke-width:7px;}.c,.d{fill:#fcee21;}.c{stroke:#fcee21;stroke-width:10px;}.e{fill:#ff0;}</style></defs><title>PJ1_logo</title><path d="M3,3H2373V1185H3Z"/><path d="M2370,6V1182H6V6H2370m6-6H0V1188H2376Z"/><path class="a" d="M3,1185,636,558l627.7,627.8,1-624.8,308.2-308.1L1826,471,1825,3l551,258-924.7,924.7-.3-.7H640L2.3,563.7l312-314L639,561,945,255l628-2L1824.9,3.1H1137L838,310H381L753,3H129V261L3.4,138.4Z"/><circle class="b" cx="687" cy="915" r="174"/><circle class="b" cx="1563" cy="689" r="115"/><circle class="b" cx="2107" cy="948" r="153"/><circle class="b" cx="1112" cy="446.1" r="110"/><path class="c" d="M708.1,874.8V312.3l-225,225V874.8Z"/><rect class="c" x="108.1" y="556.1" width="318.7" height="318.75"/><path class="c" d="M108.1,274.8H670.6l-225,225H108.1Z"/><path class="d" d="M987.7,622.3V858.4H912.9V269.7h190.8a254.6,254.6,0,0,1,75,12.5q35.4,11.9,62.1,34a161.1,161.1,0,0,1,42.2,55c10.4,21.9,15.6,46.9,15.6,75.2s-5.2,53.3-15.6,75a158.5,158.5,0,0,1-42.2,54.8q-26.7,22.3-62.1,34a244.8,244.8,0,0,1-75,12.1Zm0-61.5h116a146.4,146.4,0,0,0,47.7-8.3,113.3,113.3,0,0,0,38-22.4,102.3,102.3,0,0,0,25.3-35.4c6-13.9,9-29.7,9-47.5s-3-33.8-9-48.1a105.6,105.6,0,0,0-25.1-36.4,109.8,109.8,0,0,0-38-23,145.1,145.1,0,0,0-47.9-8.5h-116Z"/><path class="e" d="M1679,269.7h76.4V679.3q-.7,40.8-15.6,75.2a179.9,179.9,0,0,1-100.2,98c-23.1,9.3-48.2,13.9-75.4,14s-52.5-4.2-75-12.6a170.8,170.8,0,0,1-58.6-35.8,176.4,176.4,0,0,1-39.9-56.1q-15-33-18.6-73.8h76a138.7,138.7,0,0,0,9.9,45.7,118.9,118.9,0,0,0,23.7,36.5,102.4,102.4,0,0,0,35.8,24.1c13.9,5.7,29.4,8.5,46.7,8.5s33.7-3.3,47.7-9.9a107.6,107.6,0,0,0,35.8-26.9,122.9,122.9,0,0,0,22.6-39.4,160.1,160.1,0,0,0,8.7-47.5Zm463.4,588.7h-74.8V365.1l-154,58.6V355.4l222.7-85.7h6.1Z"/></svg>