<svg xmlns="http://www.w3.org/2000/svg" viewBox="0 0 900 900"><defs><style>.a,.b{fill:none;stroke:#ff0;opacity:0.25;isolation:isolate;}.a,.c{stroke-linecap:round;stroke-linejoin:round;}.a{stroke-width:6px;}.b{stroke-miterlimit:10;stroke-width:7px;}.c{fill:#fcee21;stroke:#fcee21;stroke-width:10px;}</style></defs><title>PJ1_symbol</title><path d="M-769-121H1601V1061H-769Z"/><path d="M1598-118V1058H-766V-118H1598m6-6H-772V1064H1604Z"/><path class="a" d="M-769,1061l633-627,627.7,627.8,1-624.8L800.9,128.9,1054,347l-1-468,551,258L679.3,1061.7l-.3-.7H-132L-769.7,439.7l312-314L-133,437,173,131l628-2,251.9-249.9H365L66,186H-391L-19-121H-643V137L-768.6,14.4Z"/><circle class="b" cx="-85" cy="791" r="174"/><circle class="b" cx="791" cy="565" r="115"/><circle class="b" cx="340" cy="322.1" r="110"/><path class="c" d="M750,750V187.5l-225,225V750Z"/><rect class="c" x="150" y="431.3" width="318.7" height="318.75"/><path class="c" d="M150,150H712.5l-225,225H150Z"/></svg>